<svg width="63" height="36" viewBox="0 0 63 36" fill="none" xmlns="http://www.w3.org/2000/svg">
<rect width="63" height="36" fill="white"/>
<path d="M6.42393 17.492C5.68037 25.4815 8.63122 32.2674 13.0149 32.6489C17.3985 33.0303 21.5549 26.8628 22.2985 18.8733C23.0421 10.8838 20.0912 4.09789 15.7076 3.71646C11.3239 3.33503 7.1675 9.50256 6.42393 17.492Z" fill="#F4D1A9"/>
<path d="M15.372 6.53039C15.6418 6.50649 15.921 6.53616 16.164 6.65315C16.4071 6.77002 16.5927 6.96157 16.6852 7.19821C16.7776 7.43483 16.7719 7.70302 16.6736 7.95638C16.5752 8.2099 16.3913 8.42498 16.1783 8.59411C15.8738 8.84858 15.6029 9.10651 15.3462 9.3735C13.0679 11.8091 12.6734 14.4046 12.7664 17.1779C12.9149 19.9533 13.722 22.9062 15.3961 25.9293C15.5866 26.2678 15.7791 26.5984 15.9931 26.9377C16.1368 27.1591 16.2372 27.4158 16.2429 27.6845C16.2487 27.9532 16.1614 28.2101 15.9918 28.4084C15.8221 28.6065 15.579 28.7354 15.3079 28.7768C15.0369 28.8182 14.7616 28.7664 14.514 28.6667C14.0942 28.4855 13.6923 28.2912 13.2898 28.0653C9.69799 26.0919 6.94103 22.1637 6.72421 17.6178C6.32828 13.1462 9.47164 7.91251 13.944 6.81631C14.4223 6.68041 14.8919 6.58997 15.372 6.53039Z" fill="#DFB07C"/>
<path d="M57.5176 33.6925C57.5176 34.0285 56.3416 34.1965 53.9896 34.1965C51.1896 34.0845 49.7896 33.9025 49.7896 33.6505V18.7825H47.6476C47.0876 18.7825 46.8076 17.8165 46.8076 15.8845C46.8076 15.3805 46.8496 14.7645 46.9336 14.0365C47.0456 13.3085 47.2556 12.9445 47.5636 12.9445H49.7896V9.24851C49.7896 8.68851 50.9656 8.40851 53.3176 8.40851C55.6976 8.40851 56.8876 8.63251 56.8876 9.08051V11.7685L56.9296 12.9445H60.4996C60.9756 12.9445 61.2136 13.9245 61.2136 15.8845C61.2136 17.8445 60.9756 18.8245 60.4996 18.8245H57.5176V33.6925Z" fill="#574747"/>
<path d="M30.8063 18.5825C30.0223 17.1825 29.6303 16.0485 29.6303 15.1805C29.6303 14.2845 29.8683 13.7105 30.3443 13.4585C31.9403 12.7585 34.1243 12.4085 36.8963 12.4085C39.6963 12.4085 41.6703 13.0665 42.8183 14.3825C43.9663 15.6705 44.5403 17.5885 44.5403 20.1365V26.7725H45.9683C46.4443 26.7725 46.8083 27.0525 47.0603 27.6125C47.3403 28.1725 47.4803 28.9425 47.4803 29.9225C47.4803 30.9025 47.2283 31.8685 46.7243 32.8205C46.2483 33.7725 45.5903 34.2485 44.7503 34.2485C43.2383 34.2485 42.0203 33.8425 41.0963 33.0305C40.6763 32.6945 40.3543 32.2885 40.1303 31.8125C38.8423 33.4365 36.8403 34.2485 34.1243 34.2485C32.0803 34.2485 30.3583 33.5205 28.9583 32.0645C27.5583 30.6085 26.8583 28.8865 26.8583 26.8985C26.8583 22.3345 29.5883 20.0525 35.0483 20.0525H37.3583V19.6325C37.3583 18.9045 37.2323 18.4425 36.9803 18.2465C36.7563 18.0225 36.2103 17.9105 35.3423 17.9105C34.2783 17.9105 32.7663 18.1345 30.8063 18.5825ZM34.1663 26.3105C34.1663 26.9265 34.3343 27.4025 34.6703 27.7385C35.0063 28.0465 35.4263 28.2005 35.9303 28.2005C36.4623 28.2005 36.9383 27.9905 37.3583 27.5705V24.3365H36.1823C34.8383 24.3365 34.1663 24.9945 34.1663 26.3105Z" fill="#574747"/>
<path d="M13.7715 34.2799C10.3056 34.2423 7.48835 32.8402 5.31964 30.0736C3.17569 27.3072 2.13679 23.3006 2.20294 18.0537C2.26946 12.777 3.42147 8.79417 5.65896 6.1052C7.9212 3.41651 10.7976 2.09111 14.2882 2.129C17.8036 2.16717 20.6212 3.53948 22.7412 6.24593C24.8615 8.92257 25.8875 12.9738 25.819 18.3995C25.751 23.7955 24.5986 27.8081 22.3619 30.4375C20.1255 33.037 17.2621 34.3178 13.7715 34.2799ZM14.1057 10.714C12.9174 10.7011 11.9065 11.3461 11.073 12.649C10.2643 13.9521 9.84492 15.7961 9.81485 18.1811C9.78516 20.5362 10.1459 22.3589 10.8972 23.6491C11.6489 24.9096 12.6436 25.5465 13.8814 25.5599C15.144 25.5737 16.167 24.9437 16.9506 23.6701C17.759 22.3968 18.1782 20.5677 18.2083 18.1827C18.2383 15.7978 17.853 13.9599 17.0522 12.6691C16.2762 11.3786 15.294 10.7269 14.1057 10.714Z" fill="#574747"/>
</svg>
